<?xml version="1.0" encoding="UTF-8"?>
<svg xmlns="http://www.w3.org/2000/svg" xmlns:xlink="http://www.w3.org/1999/xlink" width="375pt" height="374.999991pt" viewBox="0 0 375 374.999991" version="1.2">
<defs>
<clipPath id="clip1">
  <path d="M 41 22 L 90 22 L 90 184 L 41 184 Z M 41 22 "/>
</clipPath>
<clipPath id="clip2">
  <path d="M 69.597656 3.25 L 372.882812 76.476562 L 305.464844 355.703125 L 2.179688 282.476562 Z M 69.597656 3.25 "/>
</clipPath>
<clipPath id="clip3">
  <path d="M 69.597656 3.25 L 372.882812 76.476562 L 305.464844 355.703125 L 2.179688 282.476562 Z M 69.597656 3.25 "/>
</clipPath>
<clipPath id="clip4">
  <path d="M 69.597656 3.25 L 372.632812 76.417969 L 305.222656 355.609375 L 2.1875 282.441406 Z M 69.597656 3.25 "/>
</clipPath>
<clipPath id="clip5">
  <path d="M 51 24 L 355 24 L 355 248 L 51 248 Z M 51 24 "/>
</clipPath>
<clipPath id="clip6">
  <path d="M 69.597656 3.25 L 372.882812 76.476562 L 305.464844 355.703125 L 2.179688 282.476562 Z M 69.597656 3.25 "/>
</clipPath>
<clipPath id="clip7">
  <path d="M 69.597656 3.25 L 372.882812 76.476562 L 305.464844 355.703125 L 2.179688 282.476562 Z M 69.597656 3.25 "/>
</clipPath>
<clipPath id="clip8">
  <path d="M 69.597656 3.25 L 372.632812 76.417969 L 305.222656 355.609375 L 2.1875 282.441406 Z M 69.597656 3.25 "/>
</clipPath>
<clipPath id="clip9">
  <path d="M 164 237 L 179 237 L 179 253 L 164 253 Z M 164 237 "/>
</clipPath>
<clipPath id="clip10">
  <path d="M 69.597656 3.25 L 372.882812 76.476562 L 305.464844 355.703125 L 2.179688 282.476562 Z M 69.597656 3.25 "/>
</clipPath>
<clipPath id="clip11">
  <path d="M 69.597656 3.25 L 372.882812 76.476562 L 305.464844 355.703125 L 2.179688 282.476562 Z M 69.597656 3.25 "/>
</clipPath>
<clipPath id="clip12">
  <path d="M 69.597656 3.25 L 372.632812 76.417969 L 305.222656 355.609375 L 2.1875 282.441406 Z M 69.597656 3.25 "/>
</clipPath>
<clipPath id="clip13">
  <path d="M 16 211 L 323 211 L 323 306 L 16 306 Z M 16 211 "/>
</clipPath>
<clipPath id="clip14">
  <path d="M 69.597656 3.25 L 372.882812 76.476562 L 305.464844 355.703125 L 2.179688 282.476562 Z M 69.597656 3.25 "/>
</clipPath>
<clipPath id="clip15">
  <path d="M 69.597656 3.25 L 372.882812 76.476562 L 305.464844 355.703125 L 2.179688 282.476562 Z M 69.597656 3.25 "/>
</clipPath>
<clipPath id="clip16">
  <path d="M 69.597656 3.25 L 372.632812 76.417969 L 305.222656 355.609375 L 2.1875 282.441406 Z M 69.597656 3.25 "/>
</clipPath>
<clipPath id="clip17">
  <path d="M 113 264 L 197 264 L 197 326 L 113 326 Z M 113 264 "/>
</clipPath>
<clipPath id="clip18">
  <path d="M 69.597656 3.25 L 372.882812 76.476562 L 305.464844 355.703125 L 2.179688 282.476562 Z M 69.597656 3.25 "/>
</clipPath>
<clipPath id="clip19">
  <path d="M 69.597656 3.25 L 372.882812 76.476562 L 305.464844 355.703125 L 2.179688 282.476562 Z M 69.597656 3.25 "/>
</clipPath>
<clipPath id="clip20">
  <path d="M 69.597656 3.25 L 372.632812 76.417969 L 305.222656 355.609375 L 2.1875 282.441406 Z M 69.597656 3.25 "/>
</clipPath>
<clipPath id="clip21">
  <path d="M 18 191 L 328 191 L 328 296 L 18 296 Z M 18 191 "/>
</clipPath>
<clipPath id="clip22">
  <path d="M 69.597656 3.25 L 372.882812 76.476562 L 305.464844 355.703125 L 2.179688 282.476562 Z M 69.597656 3.25 "/>
</clipPath>
<clipPath id="clip23">
  <path d="M 69.597656 3.25 L 372.882812 76.476562 L 305.464844 355.703125 L 2.179688 282.476562 Z M 69.597656 3.25 "/>
</clipPath>
<clipPath id="clip24">
  <path d="M 69.597656 3.25 L 372.632812 76.417969 L 305.222656 355.609375 L 2.1875 282.441406 Z M 69.597656 3.25 "/>
</clipPath>
<clipPath id="clip25">
  <path d="M 24 7 L 370 7 L 370 266 L 24 266 Z M 24 7 "/>
</clipPath>
<clipPath id="clip26">
  <path d="M 69.597656 3.25 L 372.882812 76.476562 L 305.464844 355.703125 L 2.179688 282.476562 Z M 69.597656 3.25 "/>
</clipPath>
<clipPath id="clip27">
  <path d="M 69.597656 3.25 L 372.882812 76.476562 L 305.464844 355.703125 L 2.179688 282.476562 Z M 69.597656 3.25 "/>
</clipPath>
<clipPath id="clip28">
  <path d="M 69.597656 3.25 L 372.632812 76.417969 L 305.222656 355.609375 L 2.1875 282.441406 Z M 69.597656 3.25 "/>
</clipPath>
<clipPath id="clip29">
  <path d="M 131 264 L 197 264 L 197 285 L 131 285 Z M 131 264 "/>
</clipPath>
<clipPath id="clip30">
  <path d="M 69.597656 3.25 L 372.882812 76.476562 L 305.464844 355.703125 L 2.179688 282.476562 Z M 69.597656 3.25 "/>
</clipPath>
<clipPath id="clip31">
  <path d="M 69.597656 3.25 L 372.882812 76.476562 L 305.464844 355.703125 L 2.179688 282.476562 Z M 69.597656 3.25 "/>
</clipPath>
<clipPath id="clip32">
  <path d="M 69.597656 3.25 L 372.632812 76.417969 L 305.222656 355.609375 L 2.1875 282.441406 Z M 69.597656 3.25 "/>
</clipPath>
<clipPath id="clip33">
  <path d="M 104 301 L 206 301 L 206 330 L 104 330 Z M 104 301 "/>
</clipPath>
<clipPath id="clip34">
  <path d="M 69.597656 3.25 L 372.882812 76.476562 L 305.464844 355.703125 L 2.179688 282.476562 Z M 69.597656 3.25 "/>
</clipPath>
<clipPath id="clip35">
  <path d="M 69.597656 3.25 L 372.882812 76.476562 L 305.464844 355.703125 L 2.179688 282.476562 Z M 69.597656 3.25 "/>
</clipPath>
<clipPath id="clip36">
  <path d="M 69.597656 3.25 L 372.632812 76.417969 L 305.222656 355.609375 L 2.1875 282.441406 Z M 69.597656 3.25 "/>
</clipPath>
<clipPath id="clip37">
  <path d="M 98 39 L 123 39 L 123 50 L 98 50 Z M 98 39 "/>
</clipPath>
<clipPath id="clip38">
  <path d="M 69.597656 3.25 L 372.882812 76.476562 L 305.464844 355.703125 L 2.179688 282.476562 Z M 69.597656 3.25 "/>
</clipPath>
<clipPath id="clip39">
  <path d="M 69.597656 3.25 L 372.882812 76.476562 L 305.464844 355.703125 L 2.179688 282.476562 Z M 69.597656 3.25 "/>
</clipPath>
<clipPath id="clip40">
  <path d="M 69.597656 3.25 L 372.632812 76.417969 L 305.222656 355.609375 L 2.1875 282.441406 Z M 69.597656 3.25 "/>
</clipPath>
<clipPath id="clip41">
  <path d="M 133 63 L 206 63 L 206 85 L 133 85 Z M 133 63 "/>
</clipPath>
<clipPath id="clip42">
  <path d="M 69.597656 3.25 L 372.882812 76.476562 L 305.464844 355.703125 L 2.179688 282.476562 Z M 69.597656 3.25 "/>
</clipPath>
<clipPath id="clip43">
  <path d="M 69.597656 3.25 L 372.882812 76.476562 L 305.464844 355.703125 L 2.179688 282.476562 Z M 69.597656 3.25 "/>
</clipPath>
<clipPath id="clip44">
  <path d="M 69.597656 3.25 L 372.632812 76.417969 L 305.222656 355.609375 L 2.1875 282.441406 Z M 69.597656 3.25 "/>
</clipPath>
<clipPath id="clip45">
  <path d="M 99 55 L 129 55 L 129 67 L 99 67 Z M 99 55 "/>
</clipPath>
<clipPath id="clip46">
  <path d="M 69.597656 3.25 L 372.882812 76.476562 L 305.464844 355.703125 L 2.179688 282.476562 Z M 69.597656 3.25 "/>
</clipPath>
<clipPath id="clip47">
  <path d="M 69.597656 3.25 L 372.882812 76.476562 L 305.464844 355.703125 L 2.179688 282.476562 Z M 69.597656 3.25 "/>
</clipPath>
<clipPath id="clip48">
  <path d="M 69.597656 3.25 L 372.632812 76.417969 L 305.222656 355.609375 L 2.1875 282.441406 Z M 69.597656 3.25 "/>
</clipPath>
<clipPath id="clip49">
  <path d="M 192 93 L 260 93 L 260 114 L 192 114 Z M 192 93 "/>
</clipPath>
<clipPath id="clip50">
  <path d="M 69.597656 3.25 L 372.882812 76.476562 L 305.464844 355.703125 L 2.179688 282.476562 Z M 69.597656 3.25 "/>
</clipPath>
<clipPath id="clip51">
  <path d="M 69.597656 3.25 L 372.882812 76.476562 L 305.464844 355.703125 L 2.179688 282.476562 Z M 69.597656 3.25 "/>
</clipPath>
<clipPath id="clip52">
  <path d="M 69.597656 3.25 L 372.632812 76.417969 L 305.222656 355.609375 L 2.1875 282.441406 Z M 69.597656 3.25 "/>
</clipPath>
<clipPath id="clip53">
  <path d="M 101 71 L 188 71 L 188 96 L 101 96 Z M 101 71 "/>
</clipPath>
<clipPath id="clip54">
  <path d="M 69.597656 3.25 L 372.882812 76.476562 L 305.464844 355.703125 L 2.179688 282.476562 Z M 69.597656 3.25 "/>
</clipPath>
<clipPath id="clip55">
  <path d="M 69.597656 3.25 L 372.882812 76.476562 L 305.464844 355.703125 L 2.179688 282.476562 Z M 69.597656 3.25 "/>
</clipPath>
<clipPath id="clip56">
  <path d="M 69.597656 3.25 L 372.632812 76.417969 L 305.222656 355.609375 L 2.1875 282.441406 Z M 69.597656 3.25 "/>
</clipPath>
<clipPath id="clip57">
  <path d="M 103 102 L 124 102 L 124 111 L 103 111 Z M 103 102 "/>
</clipPath>
<clipPath id="clip58">
  <path d="M 69.597656 3.25 L 372.882812 76.476562 L 305.464844 355.703125 L 2.179688 282.476562 Z M 69.597656 3.25 "/>
</clipPath>
<clipPath id="clip59">
  <path d="M 69.597656 3.25 L 372.882812 76.476562 L 305.464844 355.703125 L 2.179688 282.476562 Z M 69.597656 3.25 "/>
</clipPath>
<clipPath id="clip60">
  <path d="M 69.597656 3.25 L 372.632812 76.417969 L 305.222656 355.609375 L 2.1875 282.441406 Z M 69.597656 3.25 "/>
</clipPath>
<clipPath id="clip61">
  <path d="M 127 108 L 205 108 L 205 131 L 127 131 Z M 127 108 "/>
</clipPath>
<clipPath id="clip62">
  <path d="M 69.597656 3.25 L 372.882812 76.476562 L 305.464844 355.703125 L 2.179688 282.476562 Z M 69.597656 3.25 "/>
</clipPath>
<clipPath id="clip63">
  <path d="M 69.597656 3.25 L 372.882812 76.476562 L 305.464844 355.703125 L 2.179688 282.476562 Z M 69.597656 3.25 "/>
</clipPath>
<clipPath id="clip64">
  <path d="M 69.597656 3.25 L 372.632812 76.417969 L 305.222656 355.609375 L 2.1875 282.441406 Z M 69.597656 3.25 "/>
</clipPath>
<clipPath id="clip65">
  <path d="M 102 86 L 218 86 L 218 119 L 102 119 Z M 102 86 "/>
</clipPath>
<clipPath id="clip66">
  <path d="M 69.597656 3.25 L 372.882812 76.476562 L 305.464844 355.703125 L 2.179688 282.476562 Z M 69.597656 3.25 "/>
</clipPath>
<clipPath id="clip67">
  <path d="M 69.597656 3.25 L 372.882812 76.476562 L 305.464844 355.703125 L 2.179688 282.476562 Z M 69.597656 3.25 "/>
</clipPath>
<clipPath id="clip68">
  <path d="M 69.597656 3.25 L 372.632812 76.417969 L 305.222656 355.609375 L 2.1875 282.441406 Z M 69.597656 3.25 "/>
</clipPath>
<clipPath id="clip69">
  <path d="M 167 133 L 216 133 L 216 149 L 167 149 Z M 167 133 "/>
</clipPath>
<clipPath id="clip70">
  <path d="M 69.597656 3.25 L 372.882812 76.476562 L 305.464844 355.703125 L 2.179688 282.476562 Z M 69.597656 3.25 "/>
</clipPath>
<clipPath id="clip71">
  <path d="M 69.597656 3.25 L 372.882812 76.476562 L 305.464844 355.703125 L 2.179688 282.476562 Z M 69.597656 3.25 "/>
</clipPath>
<clipPath id="clip72">
  <path d="M 69.597656 3.25 L 372.632812 76.417969 L 305.222656 355.609375 L 2.1875 282.441406 Z M 69.597656 3.25 "/>
</clipPath>
<clipPath id="clip73">
  <path d="M 91 130 L 179 130 L 179 155 L 91 155 Z M 91 130 "/>
</clipPath>
<clipPath id="clip74">
  <path d="M 69.597656 3.25 L 372.882812 76.476562 L 305.464844 355.703125 L 2.179688 282.476562 Z M 69.597656 3.25 "/>
</clipPath>
<clipPath id="clip75">
  <path d="M 69.597656 3.25 L 372.882812 76.476562 L 305.464844 355.703125 L 2.179688 282.476562 Z M 69.597656 3.25 "/>
</clipPath>
<clipPath id="clip76">
  <path d="M 69.597656 3.25 L 372.632812 76.417969 L 305.222656 355.609375 L 2.1875 282.441406 Z M 69.597656 3.25 "/>
</clipPath>
<clipPath id="clip77">
  <path d="M 75 156 L 119 156 L 119 171 L 75 171 Z M 75 156 "/>
</clipPath>
<clipPath id="clip78">
  <path d="M 69.597656 3.25 L 372.882812 76.476562 L 305.464844 355.703125 L 2.179688 282.476562 Z M 69.597656 3.25 "/>
</clipPath>
<clipPath id="clip79">
  <path d="M 69.597656 3.25 L 372.882812 76.476562 L 305.464844 355.703125 L 2.179688 282.476562 Z M 69.597656 3.25 "/>
</clipPath>
<clipPath id="clip80">
  <path d="M 69.597656 3.25 L 372.632812 76.417969 L 305.222656 355.609375 L 2.1875 282.441406 Z M 69.597656 3.25 "/>
</clipPath>
<clipPath id="clip81">
  <path d="M 146 158 L 219 158 L 219 180 L 146 180 Z M 146 158 "/>
</clipPath>
<clipPath id="clip82">
  <path d="M 69.597656 3.25 L 372.882812 76.476562 L 305.464844 355.703125 L 2.179688 282.476562 Z M 69.597656 3.25 "/>
</clipPath>
<clipPath id="clip83">
  <path d="M 69.597656 3.25 L 372.882812 76.476562 L 305.464844 355.703125 L 2.179688 282.476562 Z M 69.597656 3.25 "/>
</clipPath>
<clipPath id="clip84">
  <path d="M 69.597656 3.25 L 372.632812 76.417969 L 305.222656 355.609375 L 2.1875 282.441406 Z M 69.597656 3.25 "/>
</clipPath>
<clipPath id="clip85">
  <path d="M 83 143 L 142 143 L 142 162 L 83 162 Z M 83 143 "/>
</clipPath>
<clipPath id="clip86">
  <path d="M 69.597656 3.25 L 372.882812 76.476562 L 305.464844 355.703125 L 2.179688 282.476562 Z M 69.597656 3.25 "/>
</clipPath>
<clipPath id="clip87">
  <path d="M 69.597656 3.25 L 372.882812 76.476562 L 305.464844 355.703125 L 2.179688 282.476562 Z M 69.597656 3.25 "/>
</clipPath>
<clipPath id="clip88">
  <path d="M 69.597656 3.25 L 372.632812 76.417969 L 305.222656 355.609375 L 2.1875 282.441406 Z M 69.597656 3.25 "/>
</clipPath>
<clipPath id="clip89">
  <path d="M 67 169 L 92 169 L 92 180 L 67 180 Z M 67 169 "/>
</clipPath>
<clipPath id="clip90">
  <path d="M 69.597656 3.25 L 372.882812 76.476562 L 305.464844 355.703125 L 2.179688 282.476562 Z M 69.597656 3.25 "/>
</clipPath>
<clipPath id="clip91">
  <path d="M 69.597656 3.25 L 372.882812 76.476562 L 305.464844 355.703125 L 2.179688 282.476562 Z M 69.597656 3.25 "/>
</clipPath>
<clipPath id="clip92">
  <path d="M 69.597656 3.25 L 372.632812 76.417969 L 305.222656 355.609375 L 2.1875 282.441406 Z M 69.597656 3.25 "/>
</clipPath>
<clipPath id="clip93">
  <path d="M 183 152 L 218 152 L 218 165 L 183 165 Z M 183 152 "/>
</clipPath>
<clipPath id="clip94">
  <path d="M 69.597656 3.25 L 372.882812 76.476562 L 305.464844 355.703125 L 2.179688 282.476562 Z M 69.597656 3.25 "/>
</clipPath>
<clipPath id="clip95">
  <path d="M 69.597656 3.25 L 372.882812 76.476562 L 305.464844 355.703125 L 2.179688 282.476562 Z M 69.597656 3.25 "/>
</clipPath>
<clipPath id="clip96">
  <path d="M 69.597656 3.25 L 372.632812 76.417969 L 305.222656 355.609375 L 2.1875 282.441406 Z M 69.597656 3.25 "/>
</clipPath>
<clipPath id="clip97">
  <path d="M 100 116 L 163 116 L 163 136 L 100 136 Z M 100 116 "/>
</clipPath>
<clipPath id="clip98">
  <path d="M 69.597656 3.25 L 372.882812 76.476562 L 305.464844 355.703125 L 2.179688 282.476562 Z M 69.597656 3.25 "/>
</clipPath>
<clipPath id="clip99">
  <path d="M 69.597656 3.25 L 372.882812 76.476562 L 305.464844 355.703125 L 2.179688 282.476562 Z M 69.597656 3.25 "/>
</clipPath>
<clipPath id="clip100">
  <path d="M 69.597656 3.25 L 372.632812 76.417969 L 305.222656 355.609375 L 2.1875 282.441406 Z M 69.597656 3.25 "/>
</clipPath>
<clipPath id="clip101">
  <path d="M 58 106 L 62 106 L 62 112 L 58 112 Z M 58 106 "/>
</clipPath>
<clipPath id="clip102">
  <path d="M 69.597656 3.25 L 372.882812 76.476562 L 305.464844 355.703125 L 2.179688 282.476562 Z M 69.597656 3.25 "/>
</clipPath>
<clipPath id="clip103">
  <path d="M 69.597656 3.25 L 372.882812 76.476562 L 305.464844 355.703125 L 2.179688 282.476562 Z M 69.597656 3.25 "/>
</clipPath>
<clipPath id="clip104">
  <path d="M 69.597656 3.25 L 372.632812 76.417969 L 305.222656 355.609375 L 2.1875 282.441406 Z M 69.597656 3.25 "/>
</clipPath>
<clipPath id="clip105">
  <path d="M 55 120 L 59 120 L 59 126 L 55 126 Z M 55 120 "/>
</clipPath>
<clipPath id="clip106">
  <path d="M 69.597656 3.25 L 372.882812 76.476562 L 305.464844 355.703125 L 2.179688 282.476562 Z M 69.597656 3.25 "/>
</clipPath>
<clipPath id="clip107">
  <path d="M 69.597656 3.25 L 372.882812 76.476562 L 305.464844 355.703125 L 2.179688 282.476562 Z M 69.597656 3.25 "/>
</clipPath>
<clipPath id="clip108">
  <path d="M 69.597656 3.25 L 372.632812 76.417969 L 305.222656 355.609375 L 2.1875 282.441406 Z M 69.597656 3.25 "/>
</clipPath>
<clipPath id="clip109">
  <path d="M 51 135 L 55 135 L 55 141 L 51 141 Z M 51 135 "/>
</clipPath>
<clipPath id="clip110">
  <path d="M 69.597656 3.25 L 372.882812 76.476562 L 305.464844 355.703125 L 2.179688 282.476562 Z M 69.597656 3.25 "/>
</clipPath>
<clipPath id="clip111">
  <path d="M 69.597656 3.25 L 372.882812 76.476562 L 305.464844 355.703125 L 2.179688 282.476562 Z M 69.597656 3.25 "/>
</clipPath>
<clipPath id="clip112">
  <path d="M 69.597656 3.25 L 372.632812 76.417969 L 305.222656 355.609375 L 2.1875 282.441406 Z M 69.597656 3.25 "/>
</clipPath>
<clipPath id="clip113">
  <path d="M 48 149 L 52 149 L 52 155 L 48 155 Z M 48 149 "/>
</clipPath>
<clipPath id="clip114">
  <path d="M 69.597656 3.25 L 372.882812 76.476562 L 305.464844 355.703125 L 2.179688 282.476562 Z M 69.597656 3.25 "/>
</clipPath>
<clipPath id="clip115">
  <path d="M 69.597656 3.25 L 372.882812 76.476562 L 305.464844 355.703125 L 2.179688 282.476562 Z M 69.597656 3.25 "/>
</clipPath>
<clipPath id="clip116">
  <path d="M 69.597656 3.25 L 372.632812 76.417969 L 305.222656 355.609375 L 2.1875 282.441406 Z M 69.597656 3.25 "/>
</clipPath>
<clipPath id="clip117">
  <path d="M 44 164 L 48 164 L 48 170 L 44 170 Z M 44 164 "/>
</clipPath>
<clipPath id="clip118">
  <path d="M 69.597656 3.25 L 372.882812 76.476562 L 305.464844 355.703125 L 2.179688 282.476562 Z M 69.597656 3.25 "/>
</clipPath>
<clipPath id="clip119">
  <path d="M 69.597656 3.25 L 372.882812 76.476562 L 305.464844 355.703125 L 2.179688 282.476562 Z M 69.597656 3.25 "/>
</clipPath>
<clipPath id="clip120">
  <path d="M 69.597656 3.25 L 372.632812 76.417969 L 305.222656 355.609375 L 2.1875 282.441406 Z M 69.597656 3.25 "/>
</clipPath>
<clipPath id="clip121">
  <path d="M 62 91 L 66 91 L 66 97 L 62 97 Z M 62 91 "/>
</clipPath>
<clipPath id="clip122">
  <path d="M 69.597656 3.25 L 372.882812 76.476562 L 305.464844 355.703125 L 2.179688 282.476562 Z M 69.597656 3.25 "/>
</clipPath>
<clipPath id="clip123">
  <path d="M 69.597656 3.25 L 372.882812 76.476562 L 305.464844 355.703125 L 2.179688 282.476562 Z M 69.597656 3.25 "/>
</clipPath>
<clipPath id="clip124">
  <path d="M 69.597656 3.25 L 372.632812 76.417969 L 305.222656 355.609375 L 2.1875 282.441406 Z M 69.597656 3.25 "/>
</clipPath>
<clipPath id="clip125">
  <path d="M 65 77 L 69 77 L 69 83 L 65 83 Z M 65 77 "/>
</clipPath>
<clipPath id="clip126">
  <path d="M 69.597656 3.25 L 372.882812 76.476562 L 305.464844 355.703125 L 2.179688 282.476562 Z M 69.597656 3.25 "/>
</clipPath>
<clipPath id="clip127">
  <path d="M 69.597656 3.25 L 372.882812 76.476562 L 305.464844 355.703125 L 2.179688 282.476562 Z M 69.597656 3.25 "/>
</clipPath>
<clipPath id="clip128">
  <path d="M 69.597656 3.25 L 372.632812 76.417969 L 305.222656 355.609375 L 2.1875 282.441406 Z M 69.597656 3.25 "/>
</clipPath>
<clipPath id="clip129">
  <path d="M 69 62 L 73 62 L 73 68 L 69 68 Z M 69 62 "/>
</clipPath>
<clipPath id="clip130">
  <path d="M 69.597656 3.25 L 372.882812 76.476562 L 305.464844 355.703125 L 2.179688 282.476562 Z M 69.597656 3.25 "/>
</clipPath>
<clipPath id="clip131">
  <path d="M 69.597656 3.25 L 372.882812 76.476562 L 305.464844 355.703125 L 2.179688 282.476562 Z M 69.597656 3.25 "/>
</clipPath>
<clipPath id="clip132">
  <path d="M 69.597656 3.25 L 372.632812 76.417969 L 305.222656 355.609375 L 2.1875 282.441406 Z M 69.597656 3.25 "/>
</clipPath>
<clipPath id="clip133">
  <path d="M 72 48 L 76 48 L 76 54 L 72 54 Z M 72 48 "/>
</clipPath>
<clipPath id="clip134">
  <path d="M 69.597656 3.25 L 372.882812 76.476562 L 305.464844 355.703125 L 2.179688 282.476562 Z M 69.597656 3.25 "/>
</clipPath>
<clipPath id="clip135">
  <path d="M 69.597656 3.25 L 372.882812 76.476562 L 305.464844 355.703125 L 2.179688 282.476562 Z M 69.597656 3.25 "/>
</clipPath>
<clipPath id="clip136">
  <path d="M 69.597656 3.25 L 372.632812 76.417969 L 305.222656 355.609375 L 2.1875 282.441406 Z M 69.597656 3.25 "/>
</clipPath>
<clipPath id="clip137">
  <path d="M 76 34 L 80 34 L 80 39 L 76 39 Z M 76 34 "/>
</clipPath>
<clipPath id="clip138">
  <path d="M 69.597656 3.25 L 372.882812 76.476562 L 305.464844 355.703125 L 2.179688 282.476562 Z M 69.597656 3.25 "/>
</clipPath>
<clipPath id="clip139">
  <path d="M 69.597656 3.25 L 372.882812 76.476562 L 305.464844 355.703125 L 2.179688 282.476562 Z M 69.597656 3.25 "/>
</clipPath>
<clipPath id="clip140">
  <path d="M 69.597656 3.25 L 372.632812 76.417969 L 305.222656 355.609375 L 2.1875 282.441406 Z M 69.597656 3.25 "/>
</clipPath>
<clipPath id="clip141">
  <path d="M 179 55 L 355 55 L 355 248 L 179 248 Z M 179 55 "/>
</clipPath>
<clipPath id="clip142">
  <path d="M 69.597656 3.25 L 372.882812 76.476562 L 305.464844 355.703125 L 2.179688 282.476562 Z M 69.597656 3.25 "/>
</clipPath>
<clipPath id="clip143">
  <path d="M 69.597656 3.25 L 372.882812 76.476562 L 305.464844 355.703125 L 2.179688 282.476562 Z M 69.597656 3.25 "/>
</clipPath>
<clipPath id="clip144">
  <path d="M 69.597656 3.25 L 372.632812 76.417969 L 305.222656 355.609375 L 2.1875 282.441406 Z M 69.597656 3.25 "/>
</clipPath>
<clipPath id="clip145">
  <path d="M 202 67 L 338 67 L 338 145 L 202 145 Z M 202 67 "/>
</clipPath>
<clipPath id="clip146">
  <path d="M 69.597656 3.25 L 372.882812 76.476562 L 305.464844 355.703125 L 2.179688 282.476562 Z M 69.597656 3.25 "/>
</clipPath>
<clipPath id="clip147">
  <path d="M 69.597656 3.25 L 372.882812 76.476562 L 305.464844 355.703125 L 2.179688 282.476562 Z M 69.597656 3.25 "/>
</clipPath>
<clipPath id="clip148">
  <path d="M 69.597656 3.25 L 372.632812 76.417969 L 305.222656 355.609375 L 2.1875 282.441406 Z M 69.597656 3.25 "/>
</clipPath>
<clipPath id="clip149">
  <path d="M 220 174 L 254 174 L 254 204 L 220 204 Z M 220 174 "/>
</clipPath>
<clipPath id="clip150">
  <path d="M 69.597656 3.25 L 372.882812 76.476562 L 305.464844 355.703125 L 2.179688 282.476562 Z M 69.597656 3.25 "/>
</clipPath>
<clipPath id="clip151">
  <path d="M 69.597656 3.25 L 372.882812 76.476562 L 305.464844 355.703125 L 2.179688 282.476562 Z M 69.597656 3.25 "/>
</clipPath>
<clipPath id="clip152">
  <path d="M 69.597656 3.25 L 372.632812 76.417969 L 305.222656 355.609375 L 2.1875 282.441406 Z M 69.597656 3.25 "/>
</clipPath>
<clipPath id="clip153">
  <path d="M 240 162 L 303 162 L 303 219 L 240 219 Z M 240 162 "/>
</clipPath>
<clipPath id="clip154">
  <path d="M 69.597656 3.25 L 372.882812 76.476562 L 305.464844 355.703125 L 2.179688 282.476562 Z M 69.597656 3.25 "/>
</clipPath>
<clipPath id="clip155">
  <path d="M 69.597656 3.25 L 372.882812 76.476562 L 305.464844 355.703125 L 2.179688 282.476562 Z M 69.597656 3.25 "/>
</clipPath>
<clipPath id="clip156">
  <path d="M 69.597656 3.25 L 372.632812 76.417969 L 305.222656 355.609375 L 2.1875 282.441406 Z M 69.597656 3.25 "/>
</clipPath>
<clipPath id="clip157">
  <path d="M 199 130 L 323 130 L 323 220 L 199 220 Z M 199 130 "/>
</clipPath>
<clipPath id="clip158">
  <path d="M 69.597656 3.25 L 372.882812 76.476562 L 305.464844 355.703125 L 2.179688 282.476562 Z M 69.597656 3.25 "/>
</clipPath>
<clipPath id="clip159">
  <path d="M 69.597656 3.25 L 372.882812 76.476562 L 305.464844 355.703125 L 2.179688 282.476562 Z M 69.597656 3.25 "/>
</clipPath>
<clipPath id="clip160">
  <path d="M 69.597656 3.25 L 372.632812 76.417969 L 305.222656 355.609375 L 2.1875 282.441406 Z M 69.597656 3.25 "/>
</clipPath>
<clipPath id="clip161">
  <path d="M 196 201 L 306 201 L 306 232 L 196 232 Z M 196 201 "/>
</clipPath>
<clipPath id="clip162">
  <path d="M 69.597656 3.25 L 372.882812 76.476562 L 305.464844 355.703125 L 2.179688 282.476562 Z M 69.597656 3.25 "/>
</clipPath>
<clipPath id="clip163">
  <path d="M 69.597656 3.25 L 372.882812 76.476562 L 305.464844 355.703125 L 2.179688 282.476562 Z M 69.597656 3.25 "/>
</clipPath>
<clipPath id="clip164">
  <path d="M 69.597656 3.25 L 372.632812 76.417969 L 305.222656 355.609375 L 2.1875 282.441406 Z M 69.597656 3.25 "/>
</clipPath>
<clipPath id="clip165">
  <path d="M 209 81 L 295 81 L 295 107 L 209 107 Z M 209 81 "/>
</clipPath>
<clipPath id="clip166">
  <path d="M 69.597656 3.25 L 372.882812 76.476562 L 305.464844 355.703125 L 2.179688 282.476562 Z M 69.597656 3.25 "/>
</clipPath>
<clipPath id="clip167">
  <path d="M 69.597656 3.25 L 372.882812 76.476562 L 305.464844 355.703125 L 2.179688 282.476562 Z M 69.597656 3.25 "/>
</clipPath>
<clipPath id="clip168">
  <path d="M 69.597656 3.25 L 372.632812 76.417969 L 305.222656 355.609375 L 2.1875 282.441406 Z M 69.597656 3.25 "/>
</clipPath>
<clipPath id="clip169">
  <path d="M 206 96 L 244 96 L 244 110 L 206 110 Z M 206 96 "/>
</clipPath>
<clipPath id="clip170">
  <path d="M 69.597656 3.25 L 372.882812 76.476562 L 305.464844 355.703125 L 2.179688 282.476562 Z M 69.597656 3.25 "/>
</clipPath>
<clipPath id="clip171">
  <path d="M 69.597656 3.25 L 372.882812 76.476562 L 305.464844 355.703125 L 2.179688 282.476562 Z M 69.597656 3.25 "/>
</clipPath>
<clipPath id="clip172">
  <path d="M 69.597656 3.25 L 372.632812 76.417969 L 305.222656 355.609375 L 2.1875 282.441406 Z M 69.597656 3.25 "/>
</clipPath>
<clipPath id="clip173">
  <path d="M 219 144 L 239 144 L 239 165 L 219 165 Z M 219 144 "/>
</clipPath>
<clipPath id="clip174">
  <path d="M 69.597656 3.25 L 372.882812 76.476562 L 305.464844 355.703125 L 2.179688 282.476562 Z M 69.597656 3.25 "/>
</clipPath>
<clipPath id="clip175">
  <path d="M 69.597656 3.25 L 372.882812 76.476562 L 305.464844 355.703125 L 2.179688 282.476562 Z M 69.597656 3.25 "/>
</clipPath>
<clipPath id="clip176">
  <path d="M 69.597656 3.25 L 372.632812 76.417969 L 305.222656 355.609375 L 2.1875 282.441406 Z M 69.597656 3.25 "/>
</clipPath>
<clipPath id="clip177">
  <path d="M 174 54 L 218 54 L 218 215 L 174 215 Z M 174 54 "/>
</clipPath>
<clipPath id="clip178">
  <path d="M 69.597656 3.25 L 372.882812 76.476562 L 305.464844 355.703125 L 2.179688 282.476562 Z M 69.597656 3.25 "/>
</clipPath>
<clipPath id="clip179">
  <path d="M 69.597656 3.25 L 372.882812 76.476562 L 305.464844 355.703125 L 2.179688 282.476562 Z M 69.597656 3.25 "/>
</clipPath>
<clipPath id="clip180">
  <path d="M 69.597656 3.25 L 372.632812 76.417969 L 305.222656 355.609375 L 2.1875 282.441406 Z M 69.597656 3.25 "/>
</clipPath>
<clipPath id="clip181">
  <path d="M 184 167 L 191 167 L 191 174 L 184 174 Z M 184 167 "/>
</clipPath>
<clipPath id="clip182">
  <path d="M 69.597656 3.25 L 372.882812 76.476562 L 305.464844 355.703125 L 2.179688 282.476562 Z M 69.597656 3.25 "/>
</clipPath>
<clipPath id="clip183">
  <path d="M 69.597656 3.25 L 372.882812 76.476562 L 305.464844 355.703125 L 2.179688 282.476562 Z M 69.597656 3.25 "/>
</clipPath>
<clipPath id="clip184">
  <path d="M 69.597656 3.25 L 372.632812 76.417969 L 305.222656 355.609375 L 2.1875 282.441406 Z M 69.597656 3.25 "/>
</clipPath>
<clipPath id="clip185">
  <path d="M 187 152 L 194 152 L 194 159 L 187 159 Z M 187 152 "/>
</clipPath>
<clipPath id="clip186">
  <path d="M 69.597656 3.25 L 372.882812 76.476562 L 305.464844 355.703125 L 2.179688 282.476562 Z M 69.597656 3.25 "/>
</clipPath>
<clipPath id="clip187">
  <path d="M 69.597656 3.25 L 372.882812 76.476562 L 305.464844 355.703125 L 2.179688 282.476562 Z M 69.597656 3.25 "/>
</clipPath>
<clipPath id="clip188">
  <path d="M 69.597656 3.25 L 372.632812 76.417969 L 305.222656 355.609375 L 2.1875 282.441406 Z M 69.597656 3.25 "/>
</clipPath>
<clipPath id="clip189">
  <path d="M 191 138 L 198 138 L 198 145 L 191 145 Z M 191 138 "/>
</clipPath>
<clipPath id="clip190">
  <path d="M 69.597656 3.25 L 372.882812 76.476562 L 305.464844 355.703125 L 2.179688 282.476562 Z M 69.597656 3.25 "/>
</clipPath>
<clipPath id="clip191">
  <path d="M 69.597656 3.25 L 372.882812 76.476562 L 305.464844 355.703125 L 2.179688 282.476562 Z M 69.597656 3.25 "/>
</clipPath>
<clipPath id="clip192">
  <path d="M 69.597656 3.25 L 372.632812 76.417969 L 305.222656 355.609375 L 2.1875 282.441406 Z M 69.597656 3.25 "/>
</clipPath>
<clipPath id="clip193">
  <path d="M 194 123 L 201 123 L 201 130 L 194 130 Z M 194 123 "/>
</clipPath>
<clipPath id="clip194">
  <path d="M 69.597656 3.25 L 372.882812 76.476562 L 305.464844 355.703125 L 2.179688 282.476562 Z M 69.597656 3.25 "/>
</clipPath>
<clipPath id="clip195">
  <path d="M 69.597656 3.25 L 372.882812 76.476562 L 305.464844 355.703125 L 2.179688 282.476562 Z M 69.597656 3.25 "/>
</clipPath>
<clipPath id="clip196">
  <path d="M 69.597656 3.25 L 372.632812 76.417969 L 305.222656 355.609375 L 2.1875 282.441406 Z M 69.597656 3.25 "/>
</clipPath>
<clipPath id="clip197">
  <path d="M 198 109 L 205 109 L 205 116 L 198 116 Z M 198 109 "/>
</clipPath>
<clipPath id="clip198">
  <path d="M 69.597656 3.25 L 372.882812 76.476562 L 305.464844 355.703125 L 2.179688 282.476562 Z M 69.597656 3.25 "/>
</clipPath>
<clipPath id="clip199">
  <path d="M 69.597656 3.25 L 372.882812 76.476562 L 305.464844 355.703125 L 2.179688 282.476562 Z M 69.597656 3.25 "/>
</clipPath>
<clipPath id="clip200">
  <path d="M 69.597656 3.25 L 372.632812 76.417969 L 305.222656 355.609375 L 2.1875 282.441406 Z M 69.597656 3.25 "/>
</clipPath>
<clipPath id="clip201">
  <path d="M 201 94 L 208 94 L 208 101 L 201 101 Z M 201 94 "/>
</clipPath>
<clipPath id="clip202">
  <path d="M 69.597656 3.25 L 372.882812 76.476562 L 305.464844 355.703125 L 2.179688 282.476562 Z M 69.597656 3.25 "/>
</clipPath>
<clipPath id="clip203">
  <path d="M 69.597656 3.25 L 372.882812 76.476562 L 305.464844 355.703125 L 2.179688 282.476562 Z M 69.597656 3.25 "/>
</clipPath>
<clipPath id="clip204">
  <path d="M 69.597656 3.25 L 372.632812 76.417969 L 305.222656 355.609375 L 2.1875 282.441406 Z M 69.597656 3.25 "/>
</clipPath>
</defs>
<g id="surface1">
<g clip-path="url(#clip1)" clip-rule="nonzero">
<g clip-path="url(#clip2)" clip-rule="nonzero">
<g clip-path="url(#clip3)" clip-rule="nonzero">
<g clip-path="url(#clip4)" clip-rule="nonzero">
<path style=" stroke:none;fill-rule:nonzero;fill:rgb(90.19928%,91.369629%,92.939758%);fill-opacity:1;" d="M 80.335938 22.023438 L 89.957031 24.34375 L 51.566406 183.347656 L 41.945312 181.027344 Z M 80.335938 22.023438 "/>
</g>
</g>
</g>
</g>
<g clip-path="url(#clip5)" clip-rule="nonzero">
<g clip-path="url(#clip6)" clip-rule="nonzero">
<g clip-path="url(#clip7)" clip-rule="nonzero">
<g clip-path="url(#clip8)" clip-rule="nonzero">
<path style=" stroke:none;fill-rule:nonzero;fill:rgb(26.269531%,29.019165%,32.939148%);fill-opacity:1;" d="M 89.945312 24.390625 L 354.5 88.269531 L 316.132812 247.175781 L 51.578125 183.300781 Z M 89.945312 24.390625 "/>
</g>
</g>
</g>
</g>
<g clip-path="url(#clip9)" clip-rule="nonzero">
<g clip-path="url(#clip10)" clip-rule="nonzero">
<g clip-path="url(#clip11)" clip-rule="nonzero">
<g clip-path="url(#clip12)" clip-rule="nonzero">
<path style=" stroke:none;fill-rule:nonzero;fill:rgb(79.998779%,81.959534%,85.099792%);fill-opacity:1;" d="M 178.699219 247.128906 C 178.585938 247.601562 178.425781 248.0625 178.222656 248.503906 C 178.015625 248.949219 177.769531 249.367188 177.484375 249.761719 C 177.195312 250.15625 176.875 250.519531 176.515625 250.847656 C 176.15625 251.179688 175.769531 251.472656 175.351562 251.726562 C 174.9375 251.980469 174.5 252.195312 174.042969 252.363281 C 173.585938 252.53125 173.117188 252.652344 172.632812 252.726562 C 172.152344 252.804688 171.667969 252.832031 171.179688 252.8125 C 170.695312 252.792969 170.214844 252.726562 169.738281 252.613281 C 169.265625 252.496094 168.808594 252.335938 168.367188 252.132812 C 167.921875 251.929688 167.503906 251.683594 167.113281 251.394531 C 166.71875 251.109375 166.355469 250.785156 166.027344 250.425781 C 165.695312 250.066406 165.402344 249.679688 165.148438 249.261719 C 164.894531 248.847656 164.683594 248.410156 164.515625 247.953125 C 164.347656 247.492188 164.226562 247.023438 164.152344 246.542969 C 164.074219 246.058594 164.046875 245.574219 164.066406 245.085938 C 164.085938 244.601562 164.15625 244.117188 164.269531 243.644531 C 164.382812 243.171875 164.542969 242.710938 164.75 242.269531 C 164.953125 241.824219 165.199219 241.40625 165.488281 241.011719 C 165.773438 240.617188 166.097656 240.253906 166.453125 239.925781 C 166.8125 239.59375 167.199219 239.300781 167.617188 239.046875 C 168.03125 238.792969 168.46875 238.578125 168.925781 238.410156 C 169.382812 238.242188 169.855469 238.121094 170.335938 238.042969 C 170.816406 237.96875 171.300781 237.941406 171.789062 237.960938 C 172.273438 237.980469 172.753906 238.046875 173.230469 238.160156 C 173.703125 238.277344 174.160156 238.433594 174.601562 238.640625 C 175.046875 238.84375 175.464844 239.089844 175.859375 239.378906 C 176.25 239.664062 176.613281 239.988281 176.945312 240.347656 C 177.273438 240.707031 177.566406 241.09375 177.820312 241.507812 C 178.074219 241.925781 178.285156 242.363281 178.453125 242.820312 C 178.621094 243.277344 178.742188 243.75 178.816406 244.230469 C 178.894531 244.714844 178.921875 245.199219 178.902344 245.683594 C 178.882812 246.171875 178.8125 246.652344 178.699219 247.128906 Z M 178.699219 247.128906 "/>
</g>
</g>
</g>
</g>
<g clip-path="url(#clip13)" clip-rule="nonzero">
<g clip-path="url(#clip14)" clip-rule="nonzero">
<g clip-path="url(#clip15)" clip-rule="nonzero">
<g clip-path="url(#clip16)" clip-rule="nonzero">
<path style=" stroke:none;fill-rule:nonzero;fill:rgb(79.998779%,81.959534%,85.099792%);fill-opacity:1;" d="M 322.398438 284.476562 L 320.09375 294.011719 C 318.128906 302.148438 310.300781 306.941406 302.175781 304.980469 C 298.761719 304.152344 251.042969 292.632812 196.304688 279.417969 C 175.816406 274.46875 154.355469 269.289062 133.871094 264.339844 C 79.132812 251.125 31.417969 239.605469 28 238.78125 C 19.875 236.816406 15.09375 228.980469 17.058594 220.84375 L 19.363281 211.308594 C 17.445312 219.253906 22.367188 227.324219 30.304688 229.242188 L 167.390625 262.339844 L 304.476562 295.441406 C 312.414062 297.359375 320.476562 292.421875 322.398438 284.476562 Z M 322.398438 284.476562 "/>
</g>
</g>
</g>
</g>
<g clip-path="url(#clip17)" clip-rule="nonzero">
<g clip-path="url(#clip18)" clip-rule="nonzero">
<g clip-path="url(#clip19)" clip-rule="nonzero">
<g clip-path="url(#clip20)" clip-rule="nonzero">
<path style=" stroke:none;fill-rule:nonzero;fill:rgb(79.998779%,81.959534%,85.099792%);fill-opacity:1;" d="M 196.304688 279.417969 L 195.457031 325.089844 L 113.785156 305.371094 L 133.871094 264.339844 C 154.363281 269.289062 175.816406 274.46875 196.304688 279.417969 Z M 196.304688 279.417969 "/>
</g>
</g>
</g>
</g>
<g clip-path="url(#clip21)" clip-rule="nonzero">
<g clip-path="url(#clip22)" clip-rule="nonzero">
<g clip-path="url(#clip23)" clip-rule="nonzero">
<g clip-path="url(#clip24)" clip-rule="nonzero">
<path style=" stroke:none;fill-rule:nonzero;fill:rgb(90.19928%,91.369629%,92.939758%);fill-opacity:1;" d="M 175.554688 228.527344 L 24.039062 191.945312 L 19.386719 211.210938 L 19.363281 211.308594 C 17.445312 219.253906 22.367188 227.324219 30.304688 229.242188 L 167.390625 262.339844 L 304.476562 295.441406 C 312.414062 297.359375 320.476562 292.421875 322.398438 284.476562 L 322.421875 284.378906 L 327.074219 265.113281 Z M 169.738281 252.613281 C 165.746094 251.648438 163.304688 247.640625 164.269531 243.644531 C 165.234375 239.644531 169.238281 237.199219 173.230469 238.160156 C 177.222656 239.125 179.664062 243.128906 178.699219 247.128906 C 177.734375 251.125 173.734375 253.574219 169.738281 252.613281 Z M 169.738281 252.613281 "/>
</g>
</g>
</g>
</g>
<g clip-path="url(#clip25)" clip-rule="nonzero">
<g clip-path="url(#clip26)" clip-rule="nonzero">
<g clip-path="url(#clip27)" clip-rule="nonzero">
<g clip-path="url(#clip28)" clip-rule="nonzero">
<path style=" stroke:none;fill-rule:nonzero;fill:rgb(39.608765%,42.749023%,47.059631%);fill-opacity:1;" d="M 368.917969 91.800781 L 327.074219 265.113281 L 175.554688 228.527344 L 24.039062 191.945312 L 65.882812 18.632812 C 67.800781 10.691406 75.867188 5.75 83.804688 7.667969 L 357.976562 73.867188 C 365.914062 75.78125 370.835938 83.855469 368.917969 91.800781 Z M 316.132812 247.175781 L 352.183594 97.855469 L 354.511719 88.222656 L 335.269531 83.574219 L 320.839844 80.089844 L 311.21875 77.769531 L 301.601562 75.445312 L 291.980469 73.121094 L 282.359375 70.800781 L 176.539062 45.25 L 157.296875 40.605469 L 138.058594 35.957031 L 118.816406 31.3125 L 99.578125 26.667969 L 80.335938 22.023438 L 78.011719 31.65625 L 41.957031 180.976562 Z M 316.132812 247.175781 "/>
</g>
</g>
</g>
</g>
<g clip-path="url(#clip29)" clip-rule="nonzero">
<g clip-path="url(#clip30)" clip-rule="nonzero">
<g clip-path="url(#clip31)" clip-rule="nonzero">
<g clip-path="url(#clip32)" clip-rule="nonzero">
<path style=" stroke:none;fill-rule:nonzero;fill:rgb(66.668701%,69.799805%,74.119568%);fill-opacity:1;" d="M 196.214844 284.492188 L 196.304688 279.417969 C 175.816406 274.46875 154.355469 269.289062 133.871094 264.339844 L 131.636719 268.898438 Z M 196.214844 284.492188 "/>
</g>
</g>
</g>
</g>
<g clip-path="url(#clip33)" clip-rule="nonzero">
<g clip-path="url(#clip34)" clip-rule="nonzero">
<g clip-path="url(#clip35)" clip-rule="nonzero">
<g clip-path="url(#clip36)" clip-rule="nonzero">
<path style=" stroke:none;fill-rule:nonzero;fill:rgb(90.19928%,91.369629%,92.939758%);fill-opacity:1;" d="M 202.148438 329.222656 L 105.945312 305.996094 C 104.617188 305.675781 103.800781 304.335938 104.121094 303.007812 C 104.441406 301.675781 105.78125 300.859375 107.109375 301.179688 L 203.308594 324.40625 C 204.636719 324.726562 205.453125 326.066406 205.132812 327.394531 C 204.8125 328.726562 203.472656 329.542969 202.148438 329.222656 Z M 202.148438 329.222656 "/>
</g>
</g>
</g>
</g>
<g clip-path="url(#clip37)" clip-rule="nonzero">
<g clip-path="url(#clip38)" clip-rule="nonzero">
<g clip-path="url(#clip39)" clip-rule="nonzero">
<g clip-path="url(#clip40)" clip-rule="nonzero">
<path style=" stroke:none;fill-rule:nonzero;fill:rgb(100%,80.778503%,32.939148%);fill-opacity:1;" d="M 119.546875 49.382812 L 100.304688 44.734375 C 98.976562 44.414062 98.160156 43.074219 98.480469 41.746094 C 98.804688 40.417969 100.140625 39.597656 101.46875 39.917969 L 120.707031 44.5625 C 122.035156 44.886719 122.851562 46.222656 122.53125 47.554688 C 122.210938 48.882812 120.875 49.703125 119.546875 49.382812 Z M 119.546875 49.382812 "/>
</g>
</g>
</g>
</g>
<g clip-path="url(#clip41)" clip-rule="nonzero">
<g clip-path="url(#clip42)" clip-rule="nonzero">
<g clip-path="url(#clip43)" clip-rule="nonzero">
<g clip-path="url(#clip44)" clip-rule="nonzero">
<path style=" stroke:none;fill-rule:nonzero;fill:rgb(67.449951%,57.249451%,92.549133%);fill-opacity:1;" d="M 202.636719 84.738281 L 135.296875 68.476562 C 133.96875 68.15625 133.152344 66.816406 133.472656 65.488281 C 133.792969 64.160156 135.132812 63.339844 136.460938 63.660156 L 203.800781 79.921875 C 205.128906 80.242188 205.945312 81.578125 205.625 82.910156 C 205.304688 84.238281 203.964844 85.058594 202.636719 84.738281 Z M 202.636719 84.738281 "/>
</g>
</g>
</g>
</g>
<g clip-path="url(#clip45)" clip-rule="nonzero">
<g clip-path="url(#clip46)" clip-rule="nonzero">
<g clip-path="url(#clip47)" clip-rule="nonzero">
<g clip-path="url(#clip48)" clip-rule="nonzero">
<path style=" stroke:none;fill-rule:nonzero;fill:rgb(67.449951%,57.249451%,92.549133%);fill-opacity:1;" d="M 125.675781 66.15625 L 101.625 60.347656 C 100.300781 60.027344 99.480469 58.6875 99.804688 57.359375 C 100.125 56.027344 101.460938 55.210938 102.789062 55.53125 L 126.839844 61.335938 C 128.167969 61.65625 128.984375 62.996094 128.664062 64.328125 C 128.34375 65.65625 127.003906 66.476562 125.675781 66.15625 Z M 125.675781 66.15625 "/>
</g>
</g>
</g>
</g>
<g clip-path="url(#clip49)" clip-rule="nonzero">
<g clip-path="url(#clip50)" clip-rule="nonzero">
<g clip-path="url(#clip51)" clip-rule="nonzero">
<g clip-path="url(#clip52)" clip-rule="nonzero">
<path style=" stroke:none;fill-rule:nonzero;fill:rgb(36.468506%,61.178589%,92.549133%);fill-opacity:1;" d="M 256.871094 113.125 L 194.339844 98.027344 C 193.011719 97.707031 192.195312 96.367188 192.515625 95.035156 C 192.835938 93.707031 194.175781 92.886719 195.5 93.210938 L 258.03125 108.308594 C 259.359375 108.628906 260.175781 109.96875 259.855469 111.296875 C 259.535156 112.625 258.195312 113.445312 256.871094 113.125 Z M 256.871094 113.125 "/>
</g>
</g>
</g>
</g>
<g clip-path="url(#clip53)" clip-rule="nonzero">
<g clip-path="url(#clip54)" clip-rule="nonzero">
<g clip-path="url(#clip55)" clip-rule="nonzero">
<g clip-path="url(#clip56)" clip-rule="nonzero">
<path style=" stroke:none;fill-rule:nonzero;fill:rgb(36.468506%,61.178589%,92.549133%);fill-opacity:1;" d="M 184.71875 95.703125 L 102.949219 75.960938 C 101.621094 75.640625 100.804688 74.300781 101.125 72.96875 C 101.445312 71.640625 102.78125 70.820312 104.109375 71.144531 L 185.882812 90.886719 C 187.210938 91.207031 188.027344 92.546875 187.707031 93.875 C 187.382812 95.203125 186.046875 96.023438 184.71875 95.703125 Z M 184.71875 95.703125 "/>
</g>
</g>
</g>
</g>
<g clip-path="url(#clip57)" clip-rule="nonzero">
<g clip-path="url(#clip58)" clip-rule="nonzero">
<g clip-path="url(#clip59)" clip-rule="nonzero">
<g clip-path="url(#clip60)" clip-rule="nonzero">
<path style=" stroke:none;fill-rule:nonzero;fill:rgb(92.939758%,33.329773%,39.608765%);fill-opacity:1;" d="M 120.027344 110.667969 L 105.597656 107.1875 C 104.273438 106.863281 103.453125 105.527344 103.777344 104.195312 C 104.097656 102.867188 105.433594 102.046875 106.761719 102.367188 L 121.191406 105.851562 C 122.519531 106.171875 123.335938 107.511719 123.015625 108.84375 C 122.695312 110.171875 121.355469 110.992188 120.027344 110.667969 Z M 120.027344 110.667969 "/>
</g>
</g>
</g>
</g>
<g clip-path="url(#clip61)" clip-rule="nonzero">
<g clip-path="url(#clip62)" clip-rule="nonzero">
<g clip-path="url(#clip63)" clip-rule="nonzero">
<g clip-path="url(#clip64)" clip-rule="nonzero">
<path style=" stroke:none;fill-rule:nonzero;fill:rgb(92.939758%,33.329773%,39.608765%);fill-opacity:1;" d="M 201.050781 130.230469 L 129.648438 112.992188 C 128.320312 112.671875 127.503906 111.332031 127.824219 110.003906 C 128.148438 108.675781 129.484375 107.855469 130.8125 108.175781 L 202.214844 125.414062 C 203.539062 125.734375 204.359375 127.074219 204.035156 128.40625 C 203.714844 129.734375 202.378906 130.554688 201.050781 130.230469 Z M 201.050781 130.230469 "/>
</g>
</g>
</g>
</g>
<g clip-path="url(#clip65)" clip-rule="nonzero">
<g clip-path="url(#clip66)" clip-rule="nonzero">
<g clip-path="url(#clip67)" clip-rule="nonzero">
<g clip-path="url(#clip68)" clip-rule="nonzero">
<path style=" stroke:none;fill-rule:nonzero;fill:rgb(62.748718%,83.139038%,40.779114%);fill-opacity:1;" d="M 214.898438 118.285156 L 104.269531 91.570312 C 102.941406 91.25 102.125 89.910156 102.445312 88.582031 C 102.765625 87.253906 104.105469 86.433594 105.429688 86.753906 L 216.0625 113.464844 C 217.390625 113.789062 218.207031 115.125 217.886719 116.457031 C 217.566406 117.785156 216.226562 118.605469 214.898438 118.285156 Z M 214.898438 118.285156 "/>
</g>
</g>
</g>
</g>
<g clip-path="url(#clip69)" clip-rule="nonzero">
<g clip-path="url(#clip70)" clip-rule="nonzero">
<g clip-path="url(#clip71)" clip-rule="nonzero">
<g clip-path="url(#clip72)" clip-rule="nonzero">
<path style=" stroke:none;fill-rule:nonzero;fill:rgb(30.979919%,75.689697%,91.369629%);fill-opacity:1;" d="M 212.742188 148.347656 L 169.449219 137.894531 C 168.125 137.574219 167.304688 136.234375 167.628906 134.90625 C 167.949219 133.578125 169.285156 132.757812 170.613281 133.078125 L 213.90625 143.53125 C 215.230469 143.851562 216.050781 145.191406 215.726562 146.519531 C 215.40625 147.851562 214.070312 148.667969 212.742188 148.347656 Z M 212.742188 148.347656 "/>
</g>
</g>
</g>
</g>
<g clip-path="url(#clip73)" clip-rule="nonzero">
<g clip-path="url(#clip74)" clip-rule="nonzero">
<g clip-path="url(#clip75)" clip-rule="nonzero">
<g clip-path="url(#clip76)" clip-rule="nonzero">
<path style=" stroke:none;fill-rule:nonzero;fill:rgb(62.748718%,83.139038%,40.779114%);fill-opacity:1;" d="M 175.582031 154.667969 L 93.8125 134.925781 C 92.484375 134.605469 91.667969 133.265625 91.988281 131.9375 C 92.308594 130.605469 93.644531 129.789062 94.972656 130.109375 L 176.746094 149.851562 C 178.074219 150.171875 178.890625 151.511719 178.570312 152.839844 C 178.246094 154.171875 176.910156 154.988281 175.582031 154.667969 Z M 175.582031 154.667969 "/>
</g>
</g>
</g>
</g>
<g clip-path="url(#clip77)" clip-rule="nonzero">
<g clip-path="url(#clip78)" clip-rule="nonzero">
<g clip-path="url(#clip79)" clip-rule="nonzero">
<g clip-path="url(#clip80)" clip-rule="nonzero">
<path style=" stroke:none;fill-rule:nonzero;fill:rgb(67.449951%,57.249451%,92.549133%);fill-opacity:1;" d="M 115.683594 170.792969 L 77.203125 161.5 C 75.875 161.179688 75.058594 159.839844 75.378906 158.511719 C 75.699219 157.183594 77.039062 156.363281 78.367188 156.683594 L 116.847656 165.976562 C 118.175781 166.296875 118.992188 167.636719 118.671875 168.964844 C 118.347656 170.292969 117.011719 171.113281 115.683594 170.792969 Z M 115.683594 170.792969 "/>
</g>
</g>
</g>
</g>
<g clip-path="url(#clip81)" clip-rule="nonzero">
<g clip-path="url(#clip82)" clip-rule="nonzero">
<g clip-path="url(#clip83)" clip-rule="nonzero">
<g clip-path="url(#clip84)" clip-rule="nonzero">
<path style=" stroke:none;fill-rule:nonzero;fill:rgb(36.468506%,61.178589%,92.549133%);fill-opacity:1;" d="M 215.375 179.570312 L 148.03125 163.308594 C 146.707031 162.988281 145.886719 161.652344 146.210938 160.320312 C 146.53125 158.992188 147.867188 158.171875 149.195312 158.492188 L 216.535156 174.753906 C 217.863281 175.074219 218.679688 176.414062 218.359375 177.742188 C 218.039062 179.070312 216.703125 179.890625 215.375 179.570312 Z M 215.375 179.570312 "/>
</g>
</g>
</g>
</g>
<g clip-path="url(#clip85)" clip-rule="nonzero">
<g clip-path="url(#clip86)" clip-rule="nonzero">
<g clip-path="url(#clip87)" clip-rule="nonzero">
<g clip-path="url(#clip88)" clip-rule="nonzero">
<path style=" stroke:none;fill-rule:nonzero;fill:rgb(36.468506%,61.178589%,92.549133%);fill-opacity:1;" d="M 138.414062 160.988281 L 85.503906 148.210938 C 84.175781 147.890625 83.359375 146.550781 83.679688 145.222656 C 84 143.894531 85.335938 143.074219 86.664062 143.394531 L 139.574219 156.171875 C 140.902344 156.492188 141.71875 157.832031 141.398438 159.160156 C 141.078125 160.488281 139.742188 161.308594 138.414062 160.988281 Z M 138.414062 160.988281 "/>
</g>
</g>
</g>
</g>
<g clip-path="url(#clip89)" clip-rule="nonzero">
<g clip-path="url(#clip90)" clip-rule="nonzero">
<g clip-path="url(#clip91)" clip-rule="nonzero">
<g clip-path="url(#clip92)" clip-rule="nonzero">
<path style=" stroke:none;fill-rule:nonzero;fill:rgb(100%,80.778503%,32.939148%);fill-opacity:1;" d="M 88.144531 179.4375 L 68.902344 174.789062 C 67.574219 174.46875 66.757812 173.128906 67.082031 171.800781 C 67.402344 170.472656 68.738281 169.652344 70.066406 169.972656 L 89.308594 174.617188 C 90.632812 174.941406 91.453125 176.277344 91.128906 177.609375 C 90.808594 178.9375 89.472656 179.757812 88.144531 179.4375 Z M 88.144531 179.4375 "/>
</g>
</g>
</g>
</g>
<g clip-path="url(#clip93)" clip-rule="nonzero">
<g clip-path="url(#clip94)" clip-rule="nonzero">
<g clip-path="url(#clip95)" clip-rule="nonzero">
<g clip-path="url(#clip96)" clip-rule="nonzero">
<path style=" stroke:none;fill-rule:nonzero;fill:rgb(62.748718%,83.139038%,40.779114%);fill-opacity:1;" d="M 214.0625 163.960938 L 185.203125 156.992188 C 183.875 156.671875 183.058594 155.332031 183.378906 154.003906 C 183.699219 152.671875 185.039062 151.855469 186.363281 152.175781 L 215.226562 159.144531 C 216.554688 159.464844 217.371094 160.804688 217.050781 162.132812 C 216.726562 163.460938 215.390625 164.28125 214.0625 163.960938 Z M 214.0625 163.960938 "/>
</g>
</g>
</g>
</g>
<g clip-path="url(#clip97)" clip-rule="nonzero">
<g clip-path="url(#clip98)" clip-rule="nonzero">
<g clip-path="url(#clip99)" clip-rule="nonzero">
<g clip-path="url(#clip100)" clip-rule="nonzero">
<path style=" stroke:none;fill-rule:nonzero;fill:rgb(30.979919%,75.689697%,91.369629%);fill-opacity:1;" d="M 159.832031 135.574219 L 102.109375 121.636719 C 100.78125 121.316406 99.964844 119.976562 100.285156 118.648438 C 100.609375 117.316406 101.945312 116.5 103.273438 116.820312 L 160.992188 130.757812 C 162.320312 131.078125 163.136719 132.414062 162.816406 133.746094 C 162.496094 135.074219 161.160156 135.894531 159.832031 135.574219 Z M 159.832031 135.574219 "/>
</g>
</g>
</g>
</g>
<g clip-path="url(#clip101)" clip-rule="nonzero">
<g clip-path="url(#clip102)" clip-rule="nonzero">
<g clip-path="url(#clip103)" clip-rule="nonzero">
<g clip-path="url(#clip104)" clip-rule="nonzero">
<path style=" stroke:none;fill-rule:nonzero;fill:rgb(79.998779%,81.959534%,85.099792%);fill-opacity:1;" d="M 61.800781 109.328125 C 62.125 108 61.304688 106.660156 59.980469 106.339844 L 58.816406 111.15625 C 60.144531 111.476562 61.480469 110.660156 61.800781 109.328125 Z M 61.800781 109.328125 "/>
</g>
</g>
</g>
</g>
<g clip-path="url(#clip105)" clip-rule="nonzero">
<g clip-path="url(#clip106)" clip-rule="nonzero">
<g clip-path="url(#clip107)" clip-rule="nonzero">
<g clip-path="url(#clip108)" clip-rule="nonzero">
<path style=" stroke:none;fill-rule:nonzero;fill:rgb(79.998779%,81.959534%,85.099792%);fill-opacity:1;" d="M 58.3125 123.78125 C 58.632812 122.449219 57.816406 121.113281 56.488281 120.789062 L 55.328125 125.609375 C 56.652344 125.929688 57.992188 125.109375 58.3125 123.78125 Z M 58.3125 123.78125 "/>
</g>
</g>
</g>
</g>
<g clip-path="url(#clip109)" clip-rule="nonzero">
<g clip-path="url(#clip110)" clip-rule="nonzero">
<g clip-path="url(#clip111)" clip-rule="nonzero">
<g clip-path="url(#clip112)" clip-rule="nonzero">
<path style=" stroke:none;fill-rule:nonzero;fill:rgb(79.998779%,81.959534%,85.099792%);fill-opacity:1;" d="M 54.824219 138.230469 C 55.144531 136.902344 54.328125 135.5625 53 135.242188 L 51.835938 140.058594 C 53.164062 140.378906 54.503906 139.558594 54.824219 138.230469 Z M 54.824219 138.230469 "/>
</g>
</g>
</g>
</g>
<g clip-path="url(#clip113)" clip-rule="nonzero">
<g clip-path="url(#clip114)" clip-rule="nonzero">
<g clip-path="url(#clip115)" clip-rule="nonzero">
<g clip-path="url(#clip116)" clip-rule="nonzero">
<path style=" stroke:none;fill-rule:nonzero;fill:rgb(79.998779%,81.959534%,85.099792%);fill-opacity:1;" d="M 51.335938 152.679688 C 51.65625 151.351562 50.839844 150.011719 49.511719 149.691406 L 48.347656 154.507812 C 49.675781 154.828125 51.015625 154.011719 51.335938 152.679688 Z M 51.335938 152.679688 "/>
</g>
</g>
</g>
</g>
<g clip-path="url(#clip117)" clip-rule="nonzero">
<g clip-path="url(#clip118)" clip-rule="nonzero">
<g clip-path="url(#clip119)" clip-rule="nonzero">
<g clip-path="url(#clip120)" clip-rule="nonzero">
<path style=" stroke:none;fill-rule:nonzero;fill:rgb(79.998779%,81.959534%,85.099792%);fill-opacity:1;" d="M 47.847656 167.132812 C 48.167969 165.800781 47.351562 164.464844 46.023438 164.140625 L 44.859375 168.960938 C 46.1875 169.28125 47.523438 168.460938 47.847656 167.132812 Z M 47.847656 167.132812 "/>
</g>
</g>
</g>
</g>
<g clip-path="url(#clip121)" clip-rule="nonzero">
<g clip-path="url(#clip122)" clip-rule="nonzero">
<g clip-path="url(#clip123)" clip-rule="nonzero">
<g clip-path="url(#clip124)" clip-rule="nonzero">
<path style=" stroke:none;fill-rule:nonzero;fill:rgb(79.998779%,81.959534%,85.099792%);fill-opacity:1;" d="M 65.292969 94.878906 C 65.613281 93.550781 64.796875 92.210938 63.46875 91.890625 L 62.304688 96.707031 C 63.632812 97.027344 64.96875 96.207031 65.292969 94.878906 Z M 65.292969 94.878906 "/>
</g>
</g>
</g>
</g>
<g clip-path="url(#clip125)" clip-rule="nonzero">
<g clip-path="url(#clip126)" clip-rule="nonzero">
<g clip-path="url(#clip127)" clip-rule="nonzero">
<g clip-path="url(#clip128)" clip-rule="nonzero">
<path style=" stroke:none;fill-rule:nonzero;fill:rgb(79.998779%,81.959534%,85.099792%);fill-opacity:1;" d="M 68.78125 80.429688 C 69.101562 79.097656 68.285156 77.761719 66.957031 77.4375 L 65.792969 82.257812 C 67.121094 82.578125 68.460938 81.757812 68.78125 80.429688 Z M 68.78125 80.429688 "/>
</g>
</g>
</g>
</g>
<g clip-path="url(#clip129)" clip-rule="nonzero">
<g clip-path="url(#clip130)" clip-rule="nonzero">
<g clip-path="url(#clip131)" clip-rule="nonzero">
<g clip-path="url(#clip132)" clip-rule="nonzero">
<path style=" stroke:none;fill-rule:nonzero;fill:rgb(79.998779%,81.959534%,85.099792%);fill-opacity:1;" d="M 72.269531 65.976562 C 72.589844 64.648438 71.773438 63.308594 70.445312 62.988281 L 69.28125 67.804688 C 70.609375 68.125 71.949219 67.308594 72.269531 65.976562 Z M 72.269531 65.976562 "/>
</g>
</g>
</g>
</g>
<g clip-path="url(#clip133)" clip-rule="nonzero">
<g clip-path="url(#clip134)" clip-rule="nonzero">
<g clip-path="url(#clip135)" clip-rule="nonzero">
<g clip-path="url(#clip136)" clip-rule="nonzero">
<path style=" stroke:none;fill-rule:nonzero;fill:rgb(79.998779%,81.959534%,85.099792%);fill-opacity:1;" d="M 75.757812 51.527344 C 76.078125 50.199219 75.261719 48.859375 73.933594 48.539062 L 72.773438 53.355469 C 74.097656 53.675781 75.4375 52.855469 75.757812 51.527344 Z M 75.757812 51.527344 "/>
</g>
</g>
</g>
</g>
<g clip-path="url(#clip137)" clip-rule="nonzero">
<g clip-path="url(#clip138)" clip-rule="nonzero">
<g clip-path="url(#clip139)" clip-rule="nonzero">
<g clip-path="url(#clip140)" clip-rule="nonzero">
<path style=" stroke:none;fill-rule:nonzero;fill:rgb(79.998779%,81.959534%,85.099792%);fill-opacity:1;" d="M 79.246094 37.078125 C 79.570312 35.746094 78.75 34.410156 77.425781 34.085938 L 76.261719 38.90625 C 77.589844 39.226562 78.925781 38.40625 79.246094 37.078125 Z M 79.246094 37.078125 "/>
</g>
</g>
</g>
</g>
<g clip-path="url(#clip141)" clip-rule="nonzero">
<g clip-path="url(#clip142)" clip-rule="nonzero">
<g clip-path="url(#clip143)" clip-rule="nonzero">
<g clip-path="url(#clip144)" clip-rule="nonzero">
<path style=" stroke:none;fill-rule:nonzero;fill:rgb(90.19928%,91.369629%,92.939758%);fill-opacity:1;" d="M 217.402344 55.21875 L 354.488281 88.316406 L 316.109375 247.273438 L 179.019531 214.171875 Z M 217.402344 55.21875 "/>
</g>
</g>
</g>
</g>
<g clip-path="url(#clip145)" clip-rule="nonzero">
<g clip-path="url(#clip146)" clip-rule="nonzero">
<g clip-path="url(#clip147)" clip-rule="nonzero">
<g clip-path="url(#clip148)" clip-rule="nonzero">
<path style=" stroke:none;fill-rule:nonzero;fill:rgb(62.748718%,83.139038%,40.779114%);fill-opacity:1;" d="M 214.503906 67.210938 L 337.160156 96.828125 L 325.53125 144.996094 L 202.875 115.378906 Z M 214.503906 67.210938 "/>
</g>
</g>
</g>
</g>
<g clip-path="url(#clip149)" clip-rule="nonzero">
<g clip-path="url(#clip150)" clip-rule="nonzero">
<g clip-path="url(#clip151)" clip-rule="nonzero">
<g clip-path="url(#clip152)" clip-rule="nonzero">
<path style=" stroke:none;fill-rule:nonzero;fill:rgb(96.078491%,96.859741%,98.039246%);fill-opacity:1;" d="M 253.160156 191.097656 L 240.152344 203.449219 L 220.910156 198.804688 L 247.128906 174.550781 Z M 253.160156 191.097656 "/>
</g>
</g>
</g>
</g>
<g clip-path="url(#clip153)" clip-rule="nonzero">
<g clip-path="url(#clip154)" clip-rule="nonzero">
<g clip-path="url(#clip155)" clip-rule="nonzero">
<g clip-path="url(#clip156)" clip-rule="nonzero">
<path style=" stroke:none;fill-rule:nonzero;fill:rgb(100%,100%,100%);fill-opacity:1;" d="M 283.046875 162.832031 L 302.683594 218.546875 L 240.152344 203.449219 L 253.160156 191.097656 Z M 283.046875 162.832031 "/>
</g>
</g>
</g>
</g>
<g clip-path="url(#clip157)" clip-rule="nonzero">
<g clip-path="url(#clip158)" clip-rule="nonzero">
<g clip-path="url(#clip159)" clip-rule="nonzero">
<g clip-path="url(#clip160)" clip-rule="nonzero">
<path style=" stroke:none;fill-rule:nonzero;fill:rgb(36.468506%,61.178589%,92.549133%);fill-opacity:1;" d="M 214.382812 130.960938 L 322.609375 157.089844 L 307.492188 219.710938 L 302.683594 218.546875 L 283.046875 162.832031 L 253.160156 191.097656 L 247.128906 174.550781 L 220.910156 198.804688 L 199.265625 193.578125 Z M 214.382812 130.960938 "/>
</g>
</g>
</g>
</g>
<g clip-path="url(#clip161)" clip-rule="nonzero">
<g clip-path="url(#clip162)" clip-rule="nonzero">
<g clip-path="url(#clip163)" clip-rule="nonzero">
<g clip-path="url(#clip164)" clip-rule="nonzero">
<path style=" stroke:none;fill-rule:nonzero;fill:rgb(79.998779%,81.959534%,85.099792%);fill-opacity:1;" d="M 302.175781 231.164062 L 198.765625 206.195312 C 197.4375 205.875 196.621094 204.535156 196.941406 203.207031 C 197.261719 201.878906 198.597656 201.058594 199.925781 201.378906 L 303.339844 226.347656 C 304.667969 226.667969 305.484375 228.007812 305.164062 229.335938 C 304.839844 230.667969 303.503906 231.484375 302.175781 231.164062 Z M 302.175781 231.164062 "/>
</g>
</g>
</g>
</g>
<g clip-path="url(#clip165)" clip-rule="nonzero">
<g clip-path="url(#clip166)" clip-rule="nonzero">
<g clip-path="url(#clip167)" clip-rule="nonzero">
<g clip-path="url(#clip168)" clip-rule="nonzero">
<path style=" stroke:none;fill-rule:nonzero;fill:rgb(54.899597%,75.689697%,32.159424%);fill-opacity:1;" d="M 292.757812 101.445312 L 211.003906 81.707031 L 209.84375 86.523438 L 291.59375 106.261719 C 292.921875 106.582031 294.261719 105.761719 294.582031 104.433594 C 294.902344 103.105469 294.085938 101.765625 292.757812 101.445312 Z M 292.757812 101.445312 "/>
</g>
</g>
</g>
</g>
<g clip-path="url(#clip169)" clip-rule="nonzero">
<g clip-path="url(#clip170)" clip-rule="nonzero">
<g clip-path="url(#clip171)" clip-rule="nonzero">
<g clip-path="url(#clip172)" clip-rule="nonzero">
<path style=" stroke:none;fill-rule:nonzero;fill:rgb(54.899597%,75.689697%,32.159424%);fill-opacity:1;" d="M 241.136719 104.203125 L 207.53125 96.089844 L 206.371094 100.90625 L 239.972656 109.019531 C 241.300781 109.339844 242.636719 108.519531 242.960938 107.191406 C 243.28125 105.863281 242.46875 104.523438 241.136719 104.203125 Z M 241.136719 104.203125 "/>
</g>
</g>
</g>
</g>
<g clip-path="url(#clip173)" clip-rule="nonzero">
<g clip-path="url(#clip174)" clip-rule="nonzero">
<g clip-path="url(#clip175)" clip-rule="nonzero">
<g clip-path="url(#clip176)" clip-rule="nonzero">
<path style=" stroke:none;fill-rule:nonzero;fill:rgb(100%,80.778503%,32.939148%);fill-opacity:1;" d="M 231.300781 145.238281 C 236.636719 146.527344 239.882812 151.851562 238.59375 157.195312 C 237.3125 162.5 231.984375 165.796875 226.648438 164.503906 C 221.308594 163.214844 218.070312 157.851562 219.351562 152.550781 C 220.644531 147.203125 225.960938 143.949219 231.300781 145.238281 Z M 231.300781 145.238281 "/>
</g>
</g>
</g>
</g>
<g clip-path="url(#clip177)" clip-rule="nonzero">
<g clip-path="url(#clip178)" clip-rule="nonzero">
<g clip-path="url(#clip179)" clip-rule="nonzero">
<g clip-path="url(#clip180)" clip-rule="nonzero">
<path style=" stroke:none;fill-rule:nonzero;fill:rgb(20.779419%,23.139954%,26.669312%);fill-opacity:1;" d="M 212.589844 54.054688 L 217.402344 55.21875 L 179.019531 214.171875 L 174.210938 213.011719 Z M 212.589844 54.054688 "/>
</g>
</g>
</g>
</g>
<g clip-path="url(#clip181)" clip-rule="nonzero">
<g clip-path="url(#clip182)" clip-rule="nonzero">
<g clip-path="url(#clip183)" clip-rule="nonzero">
<g clip-path="url(#clip184)" clip-rule="nonzero">
<path style=" stroke:none;fill-rule:nonzero;fill:rgb(29.019165%,53.729248%,86.268616%);fill-opacity:1;" d="M 185.269531 167.203125 L 190.082031 168.363281 L 188.917969 173.183594 L 184.109375 172.019531 Z M 185.269531 167.203125 "/>
</g>
</g>
</g>
</g>
<g clip-path="url(#clip185)" clip-rule="nonzero">
<g clip-path="url(#clip186)" clip-rule="nonzero">
<g clip-path="url(#clip187)" clip-rule="nonzero">
<g clip-path="url(#clip188)" clip-rule="nonzero">
<path style=" stroke:none;fill-rule:nonzero;fill:rgb(54.899597%,75.689697%,32.159424%);fill-opacity:1;" d="M 188.761719 152.753906 L 193.570312 153.914062 L 192.40625 158.730469 L 187.597656 157.570312 Z M 188.761719 152.753906 "/>
</g>
</g>
</g>
</g>
<g clip-path="url(#clip189)" clip-rule="nonzero">
<g clip-path="url(#clip190)" clip-rule="nonzero">
<g clip-path="url(#clip191)" clip-rule="nonzero">
<g clip-path="url(#clip192)" clip-rule="nonzero">
<path style=" stroke:none;fill-rule:nonzero;fill:rgb(23.139954%,68.629456%,85.488892%);fill-opacity:1;" d="M 192.25 138.304688 L 197.058594 139.464844 L 195.898438 144.28125 L 191.085938 143.121094 Z M 192.25 138.304688 "/>
</g>
</g>
</g>
</g>
<g clip-path="url(#clip193)" clip-rule="nonzero">
<g clip-path="url(#clip194)" clip-rule="nonzero">
<g clip-path="url(#clip195)" clip-rule="nonzero">
<g clip-path="url(#clip196)" clip-rule="nonzero">
<path style=" stroke:none;fill-rule:nonzero;fill:rgb(85.488892%,26.669312%,32.548523%);fill-opacity:1;" d="M 195.738281 123.851562 L 200.546875 125.011719 L 199.386719 129.832031 L 194.574219 128.667969 Z M 195.738281 123.851562 "/>
</g>
</g>
</g>
</g>
<g clip-path="url(#clip197)" clip-rule="nonzero">
<g clip-path="url(#clip198)" clip-rule="nonzero">
<g clip-path="url(#clip199)" clip-rule="nonzero">
<g clip-path="url(#clip200)" clip-rule="nonzero">
<path style=" stroke:none;fill-rule:nonzero;fill:rgb(54.899597%,75.689697%,32.159424%);fill-opacity:1;" d="M 199.226562 109.402344 L 204.039062 110.5625 L 202.875 115.378906 L 198.066406 114.21875 Z M 199.226562 109.402344 "/>
</g>
</g>
</g>
</g>
<g clip-path="url(#clip201)" clip-rule="nonzero">
<g clip-path="url(#clip202)" clip-rule="nonzero">
<g clip-path="url(#clip203)" clip-rule="nonzero">
<g clip-path="url(#clip204)" clip-rule="nonzero">
<path style=" stroke:none;fill-rule:nonzero;fill:rgb(29.019165%,53.729248%,86.268616%);fill-opacity:1;" d="M 202.71875 94.953125 L 207.527344 96.113281 L 206.363281 100.929688 L 201.554688 99.769531 Z M 202.71875 94.953125 "/>
</g>
</g>
</g>
</g>
</g>
</svg>
