<?xml version="1.0" encoding="UTF-8"?>
<svg xmlns="http://www.w3.org/2000/svg" xmlns:xlink="http://www.w3.org/1999/xlink" width="375pt" height="374.999991pt" viewBox="0 0 375 374.999991" version="1.2">
<defs>
<clipPath id="clip1">
  <path d="M 2 2 L 373 2 L 373 373 L 2 373 Z M 2 2 "/>
</clipPath>
<clipPath id="clip2">
  <path d="M 54.78125 -3.957031 L 378.738281 54.835938 L 319.945312 378.796875 L -4.015625 320 Z M 54.78125 -3.957031 "/>
</clipPath>
<clipPath id="clip3">
  <path d="M 54.78125 -3.957031 L 378.738281 54.835938 L 319.945312 378.796875 L -4.015625 320 Z M 54.78125 -3.957031 "/>
</clipPath>
<clipPath id="clip4">
  <path d="M 54.78125 -3.957031 L 378.910156 54.867188 L 320.085938 379 L -4.046875 320.175781 Z M 54.78125 -3.957031 "/>
</clipPath>
<clipPath id="clip5">
  <path d="M 54.78125 -3.957031 L 379.242188 54.929688 L 320.355469 379.390625 L -4.105469 320.503906 Z M 54.78125 -3.957031 "/>
</clipPath>
<clipPath id="clip6">
  <path d="M 54.78125 -3.957031 L 378.925781 54.871094 L 320.097656 379.015625 L -4.046875 320.1875 Z M 54.78125 -3.957031 "/>
</clipPath>
<clipPath id="clip7">
  <path d="M 64 47 L 265 47 L 265 321 L 64 321 Z M 64 47 "/>
</clipPath>
<clipPath id="clip8">
  <path d="M 54.78125 -3.957031 L 378.738281 54.835938 L 319.945312 378.796875 L -4.015625 320 Z M 54.78125 -3.957031 "/>
</clipPath>
<clipPath id="clip9">
  <path d="M 54.78125 -3.957031 L 378.738281 54.835938 L 319.945312 378.796875 L -4.015625 320 Z M 54.78125 -3.957031 "/>
</clipPath>
<clipPath id="clip10">
  <path d="M 54.78125 -3.957031 L 378.910156 54.867188 L 320.085938 379 L -4.046875 320.175781 Z M 54.78125 -3.957031 "/>
</clipPath>
<clipPath id="clip11">
  <path d="M 198 114 L 304 114 L 304 183 L 198 183 Z M 198 114 "/>
</clipPath>
<clipPath id="clip12">
  <path d="M 54.78125 -3.957031 L 378.738281 54.835938 L 319.945312 378.796875 L -4.015625 320 Z M 54.78125 -3.957031 "/>
</clipPath>
<clipPath id="clip13">
  <path d="M 54.78125 -3.957031 L 378.738281 54.835938 L 319.945312 378.796875 L -4.015625 320 Z M 54.78125 -3.957031 "/>
</clipPath>
<clipPath id="clip14">
  <path d="M 54.78125 -3.957031 L 378.910156 54.867188 L 320.085938 379 L -4.046875 320.175781 Z M 54.78125 -3.957031 "/>
</clipPath>
<clipPath id="clip15">
  <path d="M 244.828125 252.78125 L 313.828125 252.78125 L 313.828125 330.03125 L 244.828125 330.03125 Z M 244.828125 252.78125 "/>
</clipPath>
</defs>
<g id="surface1">
<g clip-path="url(#clip1)" clip-rule="nonzero">
<g clip-path="url(#clip2)" clip-rule="nonzero">
<g clip-path="url(#clip3)" clip-rule="nonzero">
<g clip-path="url(#clip4)" clip-rule="nonzero">
<g clip-path="url(#clip5)" clip-rule="nonzero">
<g clip-path="url(#clip6)" clip-rule="nonzero">
<path style=" stroke:none;fill-rule:evenodd;fill:rgb(24.708557%,31.759644%,70.979309%);fill-opacity:1;" d="M 95.300781 3.398438 L 338.40625 47.519531 C 360.691406 51.5625 375.617188 73.105469 371.570312 95.390625 L 327.449219 338.496094 C 323.40625 360.78125 301.863281 375.707031 279.578125 371.660156 L 36.472656 327.539062 C 14.1875 323.496094 -0.738281 301.953125 3.304688 279.667969 L 47.425781 36.5625 C 51.472656 14.277344 73.015625 -0.648438 95.300781 3.398438 "/>
</g>
</g>
</g>
</g>
</g>
</g>
<g clip-path="url(#clip7)" clip-rule="nonzero">
<g clip-path="url(#clip8)" clip-rule="nonzero">
<g clip-path="url(#clip9)" clip-rule="nonzero">
<g clip-path="url(#clip10)" clip-rule="nonzero">
<path style=" stroke:none;fill-rule:evenodd;fill:rgb(100%,100%,99.609375%);fill-opacity:1;" d="M 264.921875 126.207031 L 263.3125 135.066406 L 219.339844 165.53125 L 206.242188 146.621094 L 193.136719 155.703125 L 210.773438 181.160156 L 215.3125 187.71875 L 259.289062 157.25 L 229.617188 320.742188 L 217.828125 303.726562 L 204.375 313.046875 L 195.058594 299.59375 L 181.605469 308.914062 L 172.285156 295.460938 L 158.835938 304.78125 L 149.515625 291.328125 L 136.0625 300.648438 L 126.742188 287.195312 L 113.289062 296.515625 L 103.96875 283.0625 L 90.515625 292.382812 L 81.199219 278.929688 L 64.25 290.671875 L 108.359375 47.621094 L 225.164062 68.820312 L 216.820312 114.777344 C 216.558594 116.222656 217.519531 117.605469 218.960938 117.867188 Z M 151.648438 83.847656 C 142.691406 82.222656 131.726562 85.882812 130.871094 100.503906 C 130.59375 100.863281 130.382812 101.203125 130.207031 101.585938 C 130.027344 101.960938 129.902344 102.320312 129.796875 102.726562 C 129.699219 103.089844 129.628906 103.441406 129.550781 103.867188 C 129.480469 104.253906 129.4375 104.644531 129.410156 105.046875 C 129.382812 105.4375 129.378906 105.808594 129.394531 106.167969 C 129.40625 106.484375 129.433594 106.820312 129.472656 107.175781 C 129.515625 107.5625 129.554688 107.863281 129.59375 108.125 C 129.726562 108.980469 129.957031 109.617188 130.246094 110.152344 C 130.515625 110.660156 130.785156 110.996094 131.070312 111.332031 C 131.152344 112.664062 131.53125 114.125 132.136719 115.59375 C 132.734375 117.039062 133.5625 118.539062 134.542969 119.945312 L 134.539062 119.976562 L 134.867188 120.410156 L 132.714844 127.046875 L 129.730469 126.503906 C 125.472656 125.730469 121.285156 126.769531 117.976562 129.066406 C 114.664062 131.359375 112.21875 134.914062 111.449219 139.171875 L 108.554688 155.121094 C 159.171875 164.304688 142.722656 161.320312 167.390625 165.796875 L 170.285156 149.847656 C 171.058594 145.589844 170.019531 141.40625 167.722656 138.09375 C 165.429688 134.78125 161.878906 132.339844 157.617188 131.566406 L 154.667969 131.03125 L 155.042969 123.984375 C 156.589844 122.960938 158.027344 121.757812 159.199219 120.503906 C 160.28125 119.34375 161.15625 118.109375 161.699219 116.890625 C 162.082031 116.675781 162.453125 116.457031 162.886719 116.078125 C 163.34375 115.675781 163.785156 115.164062 164.207031 114.40625 C 164.335938 114.175781 164.480469 113.910156 164.65625 113.558594 C 164.816406 113.242188 164.960938 112.9375 165.082031 112.644531 C 165.21875 112.3125 165.347656 111.964844 165.460938 111.589844 C 165.574219 111.203125 165.671875 110.824219 165.742188 110.433594 C 165.816406 110.011719 165.875 109.65625 165.914062 109.28125 C 165.960938 108.863281 165.96875 108.484375 165.933594 108.066406 C 165.898438 107.648438 165.820312 107.257812 165.6875 106.820312 C 165.671875 106.765625 165.65625 106.710938 165.636719 106.65625 C 165.882812 105.15625 166.425781 101.480469 166.488281 100.824219 C 167.414062 90.390625 160.171875 85.394531 151.648438 83.847656 Z M 149.085938 132.277344 L 149.382812 126.722656 L 149.15625 126.792969 C 147.355469 127.3125 145.578125 127.5 143.988281 127.210938 C 142.394531 126.921875 140.800781 126.125 139.300781 125.003906 L 139.183594 124.914062 L 137.480469 130.183594 L 139.5 133.886719 L 141.972656 138.417969 Z M 161.414062 101.554688 C 151.726562 98.269531 146.109375 91.980469 137.332031 94.796875 L 137.308594 94.902344 C 137.175781 95.425781 137.058594 95.871094 136.964844 96.226562 C 136.734375 97.082031 136.476562 97.960938 136.21875 98.816406 C 135.980469 99.597656 135.722656 100.386719 135.457031 101.144531 C 135.402344 101.296875 135.355469 101.414062 135.320312 101.496094 L 135.316406 101.496094 C 135.253906 101.636719 135.1875 101.75 135.136719 101.835938 L 135.128906 101.832031 C 135.046875 101.96875 134.964844 102.082031 134.894531 102.167969 C 134.828125 102.253906 134.75 102.335938 134.660156 102.429688 C 134.421875 102.679688 134.25 102.867188 134.148438 103 C 134.070312 103.101562 134.007812 103.210938 133.941406 103.347656 C 133.878906 103.476562 133.835938 103.605469 133.792969 103.761719 C 133.746094 103.957031 133.6875 104.238281 133.621094 104.605469 C 133.574219 104.863281 133.546875 105.101562 133.53125 105.320312 C 133.519531 105.546875 133.515625 105.785156 133.527344 106.03125 C 133.535156 106.296875 133.554688 106.527344 133.574219 106.738281 C 133.59375 106.917969 133.632812 107.183594 133.683594 107.503906 C 133.730469 107.84375 133.800781 108.054688 133.882812 108.203125 C 133.96875 108.359375 134.121094 108.546875 134.285156 108.738281 C 134.371094 108.839844 134.457031 108.945312 134.585938 109.125 C 134.71875 109.3125 134.851562 109.519531 134.96875 109.761719 L 135.175781 110.71875 C 135.152344 111.625 135.441406 112.777344 135.953125 114.019531 C 136.535156 115.4375 137.382812 116.902344 138.378906 118.226562 L 138.632812 118.5625 C 139.574219 119.757812 140.648438 120.851562 141.777344 121.691406 C 142.78125 122.449219 143.796875 122.972656 144.726562 123.140625 C 145.65625 123.308594 146.792969 123.171875 148.003906 122.820312 C 149.472656 122.394531 151.003906 121.664062 152.417969 120.765625 C 153.832031 119.871094 155.144531 118.800781 156.179688 117.691406 C 157.097656 116.707031 157.773438 115.730469 158.074219 114.875 L 158.601562 114.050781 C 158.796875 113.863281 158.992188 113.714844 159.179688 113.589844 C 159.367188 113.464844 159.484375 113.398438 159.601562 113.335938 C 159.820312 113.210938 160.03125 113.089844 160.164062 112.972656 C 160.292969 112.863281 160.429688 112.6875 160.597656 112.386719 C 160.757812 112.105469 160.886719 111.871094 160.96875 111.710938 C 161.0625 111.519531 161.160156 111.3125 161.261719 111.066406 C 161.355469 110.835938 161.441406 110.617188 161.507812 110.398438 C 161.566406 110.1875 161.625 109.957031 161.671875 109.695312 C 161.738281 109.328125 161.785156 109.046875 161.808594 108.847656 C 161.824219 108.683594 161.828125 108.546875 161.816406 108.40625 C 161.804688 108.253906 161.78125 108.128906 161.746094 108.011719 C 161.695312 107.847656 161.597656 107.613281 161.464844 107.292969 C 161.414062 107.175781 161.371094 107.070312 161.339844 106.96875 C 161.300781 106.859375 161.265625 106.726562 161.238281 106.570312 L 161.230469 106.570312 C 161.207031 106.472656 161.191406 106.34375 161.179688 106.1875 L 161.175781 106.1875 C 161.171875 106.097656 161.167969 105.972656 161.171875 105.808594 L 161.171875 105.792969 C 161.1875 105.285156 161.207031 104.734375 161.234375 104.160156 C 161.269531 103.511719 161.308594 102.898438 161.351562 102.339844 C 161.363281 102.183594 161.382812 101.921875 161.414062 101.554688 Z M 105.066406 173.460938 L 103.640625 181.304688 L 231.175781 204.453125 L 232.601562 196.609375 Z M 100.59375 198.085938 L 99.171875 205.929688 L 226.707031 229.078125 L 228.132812 221.230469 Z M 96.125 222.710938 L 94.703125 230.558594 L 222.238281 253.703125 L 223.664062 245.855469 Z M 91.65625 247.335938 L 90.234375 255.179688 L 217.769531 278.324219 L 219.191406 270.484375 Z M 229.917969 72.382812 L 222.527344 113.109375 L 263.230469 120.496094 Z M 229.917969 72.382812 "/>
</g>
</g>
</g>
</g>
<g clip-path="url(#clip11)" clip-rule="nonzero">
<g clip-path="url(#clip12)" clip-rule="nonzero">
<g clip-path="url(#clip13)" clip-rule="nonzero">
<g clip-path="url(#clip14)" clip-rule="nonzero">
<path style=" stroke:none;fill-rule:nonzero;fill:rgb(100%,100%,99.609375%);fill-opacity:1;" d="M 205.234375 152.167969 L 218.332031 171.078125 L 299.355469 114.949219 L 303.890625 121.5 L 219.59375 179.898438 L 216.320312 182.171875 L 198.679688 156.707031 L 205.234375 152.167969 "/>
</g>
</g>
</g>
</g>
<g clip-path="url(#clip15)" clip-rule="nonzero">
<path style=" stroke:none;fill-rule:nonzero;fill:rgb(100%,100%,100%);fill-opacity:1;" d="M 310.324219 319.167969 C 309.78125 319.167969 309.296875 319.289062 308.8125 319.59375 C 303.855469 322.488281 298.230469 323.996094 292.484375 323.996094 C 278.574219 323.996094 266.292969 314.945312 261.699219 302.269531 L 289.699219 302.269531 C 291.394531 302.269531 292.726562 300.941406 292.726562 299.253906 C 292.726562 297.5625 291.394531 296.234375 289.699219 296.234375 L 260.125 296.234375 C 259.882812 294.425781 259.761719 292.976562 259.761719 291.40625 C 259.761719 289.839844 259.882812 288.390625 260.125 286.578125 L 289.640625 286.578125 C 291.335938 286.578125 292.664062 285.25 292.664062 283.5625 C 292.664062 281.871094 291.335938 280.542969 289.640625 280.542969 L 261.636719 280.542969 C 266.292969 267.265625 278.574219 258.816406 292.421875 258.816406 C 298.167969 258.816406 303.792969 260.328125 308.753906 263.222656 C 309.238281 263.464844 309.71875 263.644531 310.265625 263.644531 C 311.351562 263.644531 312.320312 263.042969 312.867188 262.136719 C 313.710938 260.6875 313.226562 258.816406 311.777344 258.035156 C 305.96875 254.53125 299.257812 252.78125 292.421875 252.78125 C 275.304688 252.78125 260.125 264.25 255.285156 280.542969 L 247.910156 280.542969 C 246.214844 280.542969 244.882812 281.871094 244.882812 283.5625 C 244.882812 285.25 246.214844 286.578125 247.910156 286.578125 L 254.015625 286.578125 C 253.835938 288.390625 253.714844 289.839844 253.714844 291.40625 C 253.714844 292.976562 253.835938 294.425781 254.015625 296.234375 L 247.910156 296.234375 C 246.214844 296.234375 244.882812 297.5625 244.882812 299.253906 C 244.882812 300.941406 246.214844 302.269531 247.910156 302.269531 L 255.285156 302.269531 C 260.125 318.566406 275.304688 330.03125 292.421875 330.03125 C 299.257812 330.03125 305.910156 328.222656 311.835938 324.84375 C 313.289062 323.996094 313.773438 322.125 312.925781 320.738281 C 312.382812 319.773438 311.414062 319.167969 310.324219 319.167969 Z M 310.324219 319.167969 "/>
</g>
</g>
</svg>
